PathFileType	4	(X/Y/Z)	Patient4_TMGait_0pt3_02_left_01.trc.trc
DataRate	CameraRate	NumFrames	NumMarkers	Units	OrigDataRate	OrigDataStartFrame	OrigNumFrames
51.282051282051	51.282051282051	4	33	mm	51.282051282051	1	       141
Frame#	Time	Sacral			L.Shoulder			Chest			R.Shoulder			Neck			R.ASIS			L.ASIS			R.Thigh.Superior			R.Thigh.Lateral			R.Thigh.Inferior			R.Patella			L.Thigh.Superior			L.Thigh.Lateral			L.Thigh.Inferior			L.Patella			L.Shank.Superior			L.Shank.Lateral			L.Shank.Inferior			R.Shank.Superior			R.Shank.Lateral			R.Shank.Inferior			R.Heel			R.Midfoot.Superior			R.Midfoot.Lateral			R.Toe			L.Heel			L.Midfoot.Lateral			L.Midfoot.Superior			L.Toe			L.Elbow			L.Wrist			R.Elbow			R.Wrist			
		X1	Y1	Z1	X2	Y2	Z2	X3	Y3	Z3	X4	Y4	Z4	X5	Y5	Z5	X6	Y6	Z6	X7	Y7	Z7	X8	Y8	Z8	X9	Y9	Z9	X10	Y10	Z10	X11	Y11	Z11	X12	Y12	Z12	X13	Y13	Z13	X14	Y14	Z14	X15	Y15	Z15	X16	Y16	Z16	X17	Y17	Z17	X18	Y18	Z18	X19	Y19	Z19	X20	Y20	Z20	X21	Y21	Z21	X22	Y22	Z22	X23	Y23	Z23	X24	Y24	Z24	X25	Y25	Z25	X26	Y26	Z26	X27	Y27	Z27	X28	Y28	Z28	X29	Y29	Z29	X30	Y30	Z30	X31	Y31	Z31	X32	Y32	Z32	X33	Y33	Z33	

1	1.190000000000	697.586058771590	991.415183176455	557.420094970664	878.892927222349	1429.143447594578	389.387555352469	968.870203080981	1360.392753787510	557.421098262813	870.705770987952	1427.938861451055	725.340485454929	850.693205609064	1488.187968153416	545.772211688547	927.335724813987	936.369805893037	683.358258655813	922.963680415425	959.307934734304	409.135588806274	978.298331283924	736.949869722260	643.309961166996	897.567952773029	619.532521364472	691.469549638175	979.549077868801	574.011541592660	611.936517667764	981.412732628577	479.253303014070	613.456168114184	995.729351560928	757.731017317583	441.313591577343	943.268528003580	633.369295801653	363.885206517012	1036.329862341986	562.795255274634	434.220620118351	1038.808132628364	471.441877858672	424.084895266116	963.912231324897	413.793302668361	409.571117369489	818.940898611404	392.387303212999	356.963399423325	789.411393341734	261.894025709079	402.159386813348	939.192332370094	392.182675140422	613.336807990974	854.040478574863	295.306036912424	668.299348289278	883.127715055994	199.653204801750	601.124407514157	731.059859368971	45.036142202977	562.560044933863	902.244183661530	97.299389299996	606.682137859274	811.127706071336	37.850939687866	640.588193235027	1019.747530622571	40.862626626718	640.023427808994	592.856794999020	227.430832722480	434.875691624625	642.328633181789	173.120233011420	354.240321475513	747.055046350735	159.776442232273	376.200539188682	802.333486495924	35.554293984818	346.347071046128	896.728475195568	1073.804875555730	276.317887846236	1033.617297030190	849.946313718259	277.679908848213	824.046882801876	1082.264769953414	849.201046624319	928.110039434426	846.295519690995	897.988884123595	
2	1.209500000000	695.802200071328	988.927305051282	561.511062594505	875.035282265913	1425.998030703991	389.941510590325	967.261524980693	1357.934992365875	556.985282618139	871.554469628403	1426.149229980161	726.040687409737	849.191442738092	1485.877192023030	546.422191463980	926.934108125035	934.420577395494	684.780904749423	918.542309170787	956.809941245543	410.862476940942	978.536350926809	735.486125654184	644.227574486273	899.044960718191	617.418018758993	692.444766040416	980.965723086262	572.492233863734	612.416233728626	983.041495916626	476.877461553847	613.864880633702	995.178015239440	758.877254843996	442.200545988860	944.884140174949	633.761229454210	364.816128581506	1040.015290593437	565.260189071634	434.366917161039	1044.641937364350	474.070154383767	423.930979006660	971.104379594166	414.923217829697	409.674259718759	826.025261181442	389.723705004534	359.171195699705	801.305727319266	258.196635122206	403.560669437294	939.047365238284	390.106305637076	613.648437530440	852.352350515876	294.582893074145	668.645509055685	879.538081803521	198.679579272394	601.238309332314	725.136465546777	45.380434087893	562.472645634759	896.452523141525	97.119248024395	606.531737835305	805.242214637098	37.953641003114	640.553808476213	1013.844072476640	40.573405427854	640.147415849550	606.739453043269	214.903177766282	439.465787982391	656.725370365931	165.774985559586	356.466563202142	762.027439567956	157.127361916627	376.443392645689	822.230214141893	37.238160188177	341.553456050349	884.686525017423	1069.598739412026	279.776961762770	1002.286541151170	838.365424266378	280.232939855839	834.834906178458	1079.854033705897	851.527466384372	951.232743319356	850.693025239943	899.266823277136	
3	1.229000000000	693.930927581434	986.448843158047	565.641782733779	871.070019320906	1422.838213510705	390.469560658972	965.624476675005	1355.438766406148	556.462881462000	872.484046028384	1424.353253280167	726.692997783734	847.685506435834	1483.561312933729	547.038216356341	926.469314378175	932.441279094694	686.151384629144	914.035136625167	954.320983852291	412.538592629451	978.603452791272	733.965806217785	645.040020502265	900.351109378767	615.274152258416	693.356872475676	982.128440108491	570.931480888973	612.762865107136	984.393637659287	474.486760981926	614.128378337936	994.451377927805	760.040825209207	443.003086583352	946.344235959290	634.204418400063	365.639275231577	1043.513308846853	567.794542170615	434.418600315334	1050.359494502985	476.855253287289	423.659059677390	978.398227305236	416.122854034735	409.628077079588	833.422844295005	386.619460657749	361.180720396995	813.993996394093	254.088059623407	404.740541173217	938.661992224930	388.002408298249	613.853430561787	850.481665279206	293.812560603977	668.929020461518	875.760757399328	197.672164588357	601.297154616451	719.058337794516	45.689226772052	562.409186771607	890.464429629563	96.899998646325	606.315034388062	799.190925685959	38.043399545977	640.528981941991	1007.773884981197	40.302723127887	640.267698967221	621.808665570272	201.401991351670	443.697770258728	672.369019341574	157.515862250084	358.434335479779	778.119119626220	153.935186529730	376.511905695072	843.529318101136	38.673431757190	336.783990290382	871.925685887875	1065.550072266525	283.044680799461	970.415048578002	827.289940690371	282.894499110565	846.176955565829	1077.545404500146	853.798109060355	975.353415898677	855.743982100794	900.230196566869	
4	1.248500000000	691.992698914007	984.111569840521	569.694277761354	867.062287940582	1419.801512705878	390.942220797876	963.999218063828	1353.002400161465	555.812591311156	873.524758175323	1422.641445446367	727.238662561234	846.223651753337	1481.347778733021	547.579413879657	925.920313911765	930.507284438956	687.378905694373	909.544033229691	951.972032548994	414.061242775783	978.388381479225	732.427488528209	645.664666147864	901.319177181774	613.183229597674	694.147022922945	982.831563094652	569.374236853783	612.908316388540	985.237567456052	472.172284278097	614.178972193635	993.466214164467	761.221546088564	443.658598574033	947.496096081292	634.731862285806	366.279970823824	1046.584833391165	570.366084679323	434.331484245252	1055.683137348971	479.809384091098	423.232654705307	985.580102052296	417.423411949650	409.373112131862	841.067725291173	383.009808085067	362.810448399822	827.460435433949	249.580066023551	405.551515904773	937.885809221352	385.952170922998	613.905646537266	848.357794839028	293.014571668726	669.117474050179	871.796863847404	196.663508627038	601.280695000148	712.928666093232	45.938675735033	562.378277316626	884.376654463827	96.649694592721	606.038743788662	793.075535983539	38.113538316829	640.519799995255	1001.638557007077	40.067915426351	640.378149082377	638.184572224423	186.998538661252	447.230719681309	689.408619165776	148.279581666075	359.937270655448	795.382070404206	150.135057130962	376.323144436856	866.238902724883	39.799732518894	332.235102043077	858.511618110774	1061.922746437067	285.953450808943	938.761118546272	817.365343608021	285.634345710247	857.997845807549	1075.524396753532	855.899285173436	1000.172370261846	861.734250324771	900.646689201038	
